<?xml version="1.0" encoding="utf-8"?>
<!-- Generator: Adobe Illustrator 23.0.2, SVG Export Plug-In . SVG Version: 6.00 Build 0)  -->
<svg version="1.1" id="Layer_1" focusable="false" xmlns="http://www.w3.org/2000/svg" xmlns:xlink="http://www.w3.org/1999/xlink"
	 x="0px" y="0px" viewBox="0 0 15.2 19.9" style="enable-background:new 0 0 15.2 19.9;" xml:space="preserve">
<style type="text/css">
	.st0{fill:#FFFFFF;stroke:#000000;stroke-miterlimit:10;}
</style>
<path class="st0" d="M8.8,5.5v-5H1.4c-0.5,0-0.9,0.4-0.9,0.9v17.1c0,0.5,0.4,0.9,0.9,0.9h12.4c0.5,0,0.9-0.4,0.9-0.9V6.4h-5
	C9.2,6.4,8.8,6,8.8,5.5z M11.2,13.5H8.8v3c0,0.3-0.3,0.6-0.6,0.6H7c-0.3,0-0.6-0.3-0.6-0.6v-3H4c-0.5,0-0.8-0.6-0.4-1L7.1,9
	C7.4,8.7,7.8,8.7,8,9l3.6,3.5C12,12.9,11.7,13.5,11.2,13.5z M14.4,4.4l-3.6-3.6c-0.2-0.2-0.4-0.3-0.6-0.3H9.9v4.7h4.7V5
	C14.7,4.8,14.6,4.5,14.4,4.4z"/>
</svg>
